<?xml version="1.0" encoding="iso-8859-1"?>
<!-- Generator: Adobe Illustrator 19.1.0, SVG Export Plug-In . SVG Version: 6.00 Build 0)  -->
<svg version="1.1" id="Capa_1" xmlns="http://www.w3.org/2000/svg" xmlns:xlink="http://www.w3.org/1999/xlink" x="0px" y="0px"
	 viewBox="0 0 63.013 63.013" style="enable-background:new 0 0 63.013 63.013;" xml:space="preserve">
<g>
	<g id="group-19svg">
		<path id="path-1_9_" d="M47.755,61.245H34.671c-1.925,0-3.559-1.434-3.559-3.57v-19.43H27.7c-2.297,0-4.416-1.445-5.668-3.863
			c-1.468-2.834-1.393-6.239,0.186-8.471l14.67-22.489C38.091,1.717,39.943,0.767,42,0.767c2.35,0,4.643,1.247,5.983,3.255
			l13.902,21.814c1.75,2.619,1.246,6.229-0.04,8.631c-1.283,2.401-3.309,3.778-5.559,3.778h-4.174v19.43
			C52.112,59.811,49.653,61.245,47.755,61.245z M42,3.767c-1.085,0-2.02,0.476-2.631,1.341l-14.67,22.488
			c-0.965,1.367-0.953,3.571-0.003,5.407c0.349,0.674,1.34,2.242,3.004,2.242h6.412v22.43c0,0.215,0.051,0.57,0.559,0.57h13.084
			c0.479,0,1.357-0.321,1.357-0.57v-22.43h7.174c1.572,0,2.561-1.533,2.914-2.192c1.005-1.879,1.077-4.225,0.174-5.578L45.471,5.661
			C44.698,4.503,43.361,3.767,42,3.767z"/>
		<path id="path-2_9_" d="M21.031,62.245c-0.03,0-0.06,0-0.09,0c-2.321,0-4.586-1.48-5.909-3.463L1.129,36.829
			c-1.759-2.633-1.244-6.324,0.055-8.754c1.285-2.403,3.306-3.83,5.546-3.83h5.382V5.34c0-2.013,0.83-4.095,2.934-4.095h13.083
			c2.127,0,3.983,2.117,3.983,4.095v11.905h-3V5.34c0-0.574-0.827-1.095-0.983-1.095H15.046c-0.095,0.054,0.066,0.501,0.066,1.095
			v21.905H6.73c-1.558,0-2.547,1.535-2.9,2.196c-1.021,1.909-1.1,4.286-0.189,5.651l13.904,21.854
			c0.765,1.146,2.088,1.886,3.436,1.904c0.634,0.009,1.831-0.153,2.665-1.332l7.818-12.006l2.514,1.637L26.128,59.4
			C24.924,61.103,23.083,62.245,21.031,62.245z"/>
	</g>
</g>
<g>
</g>
<g>
</g>
<g>
</g>
<g>
</g>
<g>
</g>
<g>
</g>
<g>
</g>
<g>
</g>
<g>
</g>
<g>
</g>
<g>
</g>
<g>
</g>
<g>
</g>
<g>
</g>
<g>
</g>
</svg>
